<mxfile host="app.diagrams.net" modified="2024-01-22T16:34:33.337Z" agent="Mozilla/5.0 (Macintosh; Intel Mac OS X 10_15_7) AppleWebKit/537.36 (KHTML, like Gecko) Chrome/120.0.0.0 Safari/537.36" etag="Qi7tOLQ7PvPR5snuxhcm" version="22.1.21" type="github">
  <diagram name="第 1 页" id="VcTGC_0ALSRAaAG4vHXl">
    <mxGraphModel dx="2261" dy="786" grid="1" gridSize="10" guides="1" tooltips="1" connect="1" arrows="1" fold="1" page="1" pageScale="1" pageWidth="827" pageHeight="1169" math="0" shadow="0">
      <root>
        <mxCell id="0" />
        <mxCell id="1" parent="0" />
        <mxCell id="FDSydZNx9eT348Bdh0g4-5" value="" style="rounded=1;whiteSpace=wrap;html=1;dashed=1;" vertex="1" parent="1">
          <mxGeometry x="140" y="190" width="360" height="220" as="geometry" />
        </mxCell>
        <mxCell id="FDSydZNx9eT348Bdh0g4-11" style="edgeStyle=orthogonalEdgeStyle;rounded=0;orthogonalLoop=1;jettySize=auto;html=1;exitX=0.5;exitY=1;exitDx=0;exitDy=0;entryX=0.5;entryY=0;entryDx=0;entryDy=0;" edge="1" parent="1" source="FDSydZNx9eT348Bdh0g4-1" target="FDSydZNx9eT348Bdh0g4-3">
          <mxGeometry relative="1" as="geometry" />
        </mxCell>
        <mxCell id="FDSydZNx9eT348Bdh0g4-1" value="healthz" style="rounded=1;whiteSpace=wrap;html=1;fillColor=#dae8fc;strokeColor=#6c8ebf;" vertex="1" parent="1">
          <mxGeometry x="160" y="210" width="120" height="60" as="geometry" />
        </mxCell>
        <mxCell id="FDSydZNx9eT348Bdh0g4-9" style="edgeStyle=orthogonalEdgeStyle;rounded=0;orthogonalLoop=1;jettySize=auto;html=1;exitX=0.5;exitY=1;exitDx=0;exitDy=0;entryX=0.5;entryY=0;entryDx=0;entryDy=0;" edge="1" parent="1" source="FDSydZNx9eT348Bdh0g4-2" target="FDSydZNx9eT348Bdh0g4-4">
          <mxGeometry relative="1" as="geometry" />
        </mxCell>
        <mxCell id="FDSydZNx9eT348Bdh0g4-2" value="etcd" style="rounded=1;whiteSpace=wrap;html=1;fillColor=#dae8fc;strokeColor=#6c8ebf;" vertex="1" parent="1">
          <mxGeometry x="340" y="210" width="120" height="60" as="geometry" />
        </mxCell>
        <mxCell id="FDSydZNx9eT348Bdh0g4-10" style="rounded=0;orthogonalLoop=1;jettySize=auto;html=1;exitX=1;exitY=0;exitDx=0;exitDy=0;entryX=0;entryY=1;entryDx=0;entryDy=0;" edge="1" parent="1" source="FDSydZNx9eT348Bdh0g4-3" target="FDSydZNx9eT348Bdh0g4-2">
          <mxGeometry relative="1" as="geometry" />
        </mxCell>
        <mxCell id="FDSydZNx9eT348Bdh0g4-21" style="edgeStyle=orthogonalEdgeStyle;rounded=0;orthogonalLoop=1;jettySize=auto;html=1;exitX=0.5;exitY=1;exitDx=0;exitDy=0;entryX=0.5;entryY=0;entryDx=0;entryDy=0;" edge="1" parent="1" source="FDSydZNx9eT348Bdh0g4-3" target="FDSydZNx9eT348Bdh0g4-19">
          <mxGeometry relative="1" as="geometry" />
        </mxCell>
        <mxCell id="FDSydZNx9eT348Bdh0g4-22" value="获取服务信息" style="edgeLabel;html=1;align=center;verticalAlign=middle;resizable=0;points=[];" vertex="1" connectable="0" parent="FDSydZNx9eT348Bdh0g4-21">
          <mxGeometry x="0.0857" relative="1" as="geometry">
            <mxPoint as="offset" />
          </mxGeometry>
        </mxCell>
        <mxCell id="FDSydZNx9eT348Bdh0g4-3" value="kube2sky" style="rounded=1;whiteSpace=wrap;html=1;fillColor=#dae8fc;strokeColor=#6c8ebf;" vertex="1" parent="1">
          <mxGeometry x="160" y="320" width="120" height="60" as="geometry" />
        </mxCell>
        <mxCell id="FDSydZNx9eT348Bdh0g4-13" value="返回服务ip" style="edgeStyle=orthogonalEdgeStyle;rounded=0;orthogonalLoop=1;jettySize=auto;html=1;exitX=0.5;exitY=1;exitDx=0;exitDy=0;entryX=0.5;entryY=0;entryDx=0;entryDy=0;" edge="1" parent="1" source="FDSydZNx9eT348Bdh0g4-4" target="FDSydZNx9eT348Bdh0g4-12">
          <mxGeometry relative="1" as="geometry" />
        </mxCell>
        <mxCell id="FDSydZNx9eT348Bdh0g4-4" value="skydns" style="rounded=1;whiteSpace=wrap;html=1;fillColor=#dae8fc;strokeColor=#6c8ebf;" vertex="1" parent="1">
          <mxGeometry x="340" y="320" width="120" height="60" as="geometry" />
        </mxCell>
        <mxCell id="FDSydZNx9eT348Bdh0g4-6" value="&lt;h1&gt;kube2sky&lt;/h1&gt;&lt;p&gt;监控service资源变化&lt;/p&gt;" style="text;html=1;strokeColor=#d6b656;fillColor=#fff2cc;spacing=5;spacingTop=-20;whiteSpace=wrap;overflow=hidden;rounded=0;" vertex="1" parent="1">
          <mxGeometry x="-30" y="310" width="130" height="80" as="geometry" />
        </mxCell>
        <mxCell id="FDSydZNx9eT348Bdh0g4-7" value="&lt;h1&gt;skydns&lt;/h1&gt;&lt;h1&gt;&lt;span style=&quot;font-size: 12px; font-weight: 400;&quot;&gt;读取DNS记录&lt;/span&gt;&lt;/h1&gt;" style="text;html=1;strokeColor=#d6b656;fillColor=#fff2cc;spacing=5;spacingTop=-20;whiteSpace=wrap;overflow=hidden;rounded=0;" vertex="1" parent="1">
          <mxGeometry x="540" y="350" width="130" height="80" as="geometry" />
        </mxCell>
        <mxCell id="FDSydZNx9eT348Bdh0g4-8" value="&lt;h1&gt;etcd&lt;/h1&gt;&lt;p&gt;保存service名称、IP地址形成的DNS记录&lt;/p&gt;" style="text;html=1;strokeColor=#d6b656;fillColor=#fff2cc;spacing=5;spacingTop=-20;whiteSpace=wrap;overflow=hidden;rounded=0;" vertex="1" parent="1">
          <mxGeometry x="540" y="160" width="130" height="80" as="geometry" />
        </mxCell>
        <mxCell id="FDSydZNx9eT348Bdh0g4-12" value="pod" style="rounded=1;whiteSpace=wrap;html=1;" vertex="1" parent="1">
          <mxGeometry x="340" y="450" width="120" height="60" as="geometry" />
        </mxCell>
        <mxCell id="FDSydZNx9eT348Bdh0g4-14" value="&lt;h1&gt;healthz&lt;/h1&gt;&lt;p&gt;提供skydns服务的健康检查&lt;/p&gt;" style="text;html=1;strokeColor=#d6b656;fillColor=#fff2cc;spacing=5;spacingTop=-20;whiteSpace=wrap;overflow=hidden;rounded=0;" vertex="1" parent="1">
          <mxGeometry x="170" y="70" width="130" height="80" as="geometry" />
        </mxCell>
        <mxCell id="FDSydZNx9eT348Bdh0g4-15" value="" style="endArrow=none;dashed=1;html=1;dashPattern=1 3;strokeWidth=2;rounded=0;exitX=0.5;exitY=0;exitDx=0;exitDy=0;entryX=0.5;entryY=1;entryDx=0;entryDy=0;fillColor=#ffe6cc;strokeColor=#d79b00;" edge="1" parent="1" source="FDSydZNx9eT348Bdh0g4-1" target="FDSydZNx9eT348Bdh0g4-14">
          <mxGeometry width="50" height="50" relative="1" as="geometry">
            <mxPoint x="190" y="200" as="sourcePoint" />
            <mxPoint x="240" y="150" as="targetPoint" />
          </mxGeometry>
        </mxCell>
        <mxCell id="FDSydZNx9eT348Bdh0g4-16" value="" style="endArrow=none;dashed=1;html=1;dashPattern=1 3;strokeWidth=2;rounded=0;exitX=1;exitY=0.25;exitDx=0;exitDy=0;entryX=0;entryY=0.5;entryDx=0;entryDy=0;fillColor=#ffe6cc;strokeColor=#d79b00;" edge="1" parent="1" source="FDSydZNx9eT348Bdh0g4-6" target="FDSydZNx9eT348Bdh0g4-3">
          <mxGeometry width="50" height="50" relative="1" as="geometry">
            <mxPoint x="100" y="390" as="sourcePoint" />
            <mxPoint x="115" y="330" as="targetPoint" />
          </mxGeometry>
        </mxCell>
        <mxCell id="FDSydZNx9eT348Bdh0g4-17" value="" style="endArrow=none;dashed=1;html=1;dashPattern=1 3;strokeWidth=2;rounded=0;exitX=1;exitY=0.5;exitDx=0;exitDy=0;entryX=0;entryY=0.25;entryDx=0;entryDy=0;fillColor=#ffe6cc;strokeColor=#d79b00;" edge="1" parent="1" source="FDSydZNx9eT348Bdh0g4-4" target="FDSydZNx9eT348Bdh0g4-7">
          <mxGeometry width="50" height="50" relative="1" as="geometry">
            <mxPoint x="520" y="430" as="sourcePoint" />
            <mxPoint x="535" y="370" as="targetPoint" />
          </mxGeometry>
        </mxCell>
        <mxCell id="FDSydZNx9eT348Bdh0g4-18" value="" style="endArrow=none;dashed=1;html=1;dashPattern=1 3;strokeWidth=2;rounded=0;exitX=1;exitY=0.25;exitDx=0;exitDy=0;entryX=0.5;entryY=1;entryDx=0;entryDy=0;fillColor=#ffe6cc;strokeColor=#d79b00;" edge="1" parent="1" source="FDSydZNx9eT348Bdh0g4-2">
          <mxGeometry width="50" height="50" relative="1" as="geometry">
            <mxPoint x="525" y="260" as="sourcePoint" />
            <mxPoint x="540" y="200" as="targetPoint" />
          </mxGeometry>
        </mxCell>
        <mxCell id="FDSydZNx9eT348Bdh0g4-19" value="master" style="rounded=1;whiteSpace=wrap;html=1;fillColor=#dae8fc;strokeColor=#6c8ebf;" vertex="1" parent="1">
          <mxGeometry x="160" y="450" width="120" height="60" as="geometry" />
        </mxCell>
        <mxCell id="FDSydZNx9eT348Bdh0g4-23" value="&lt;h1&gt;&lt;span style=&quot;background-color: initial;&quot;&gt;问题&lt;/span&gt;&lt;/h1&gt;&lt;h1&gt;&lt;span style=&quot;font-size: 12px; font-weight: 400;&quot;&gt;组件太多、通信太多、性能不高&lt;/span&gt;&lt;/h1&gt;" style="text;html=1;strokeColor=#d6b656;fillColor=#fff2cc;spacing=5;spacingTop=-20;whiteSpace=wrap;overflow=hidden;rounded=0;" vertex="1" parent="1">
          <mxGeometry x="-250" y="160" width="210" height="75" as="geometry" />
        </mxCell>
        <mxCell id="FDSydZNx9eT348Bdh0g4-24" value="" style="rounded=1;whiteSpace=wrap;html=1;dashed=1;" vertex="1" parent="1">
          <mxGeometry x="160" y="770" width="360" height="220" as="geometry" />
        </mxCell>
        <mxCell id="FDSydZNx9eT348Bdh0g4-25" style="edgeStyle=orthogonalEdgeStyle;rounded=0;orthogonalLoop=1;jettySize=auto;html=1;exitX=0.5;exitY=1;exitDx=0;exitDy=0;entryX=0.5;entryY=0;entryDx=0;entryDy=0;" edge="1" parent="1" source="FDSydZNx9eT348Bdh0g4-26" target="FDSydZNx9eT348Bdh0g4-32">
          <mxGeometry relative="1" as="geometry" />
        </mxCell>
        <mxCell id="FDSydZNx9eT348Bdh0g4-48" value="健康检查" style="edgeLabel;html=1;align=center;verticalAlign=middle;resizable=0;points=[];" vertex="1" connectable="0" parent="FDSydZNx9eT348Bdh0g4-25">
          <mxGeometry x="-0.12" relative="1" as="geometry">
            <mxPoint as="offset" />
          </mxGeometry>
        </mxCell>
        <mxCell id="FDSydZNx9eT348Bdh0g4-46" style="rounded=0;orthogonalLoop=1;jettySize=auto;html=1;exitX=1;exitY=1;exitDx=0;exitDy=0;entryX=0;entryY=0;entryDx=0;entryDy=0;" edge="1" parent="1" source="FDSydZNx9eT348Bdh0g4-26" target="FDSydZNx9eT348Bdh0g4-34">
          <mxGeometry relative="1" as="geometry" />
        </mxCell>
        <mxCell id="FDSydZNx9eT348Bdh0g4-47" value="健康检查" style="edgeLabel;html=1;align=center;verticalAlign=middle;resizable=0;points=[];" vertex="1" connectable="0" parent="FDSydZNx9eT348Bdh0g4-46">
          <mxGeometry x="-0.2557" y="-1" relative="1" as="geometry">
            <mxPoint as="offset" />
          </mxGeometry>
        </mxCell>
        <mxCell id="FDSydZNx9eT348Bdh0g4-26" value="sidecar" style="rounded=1;whiteSpace=wrap;html=1;fillColor=#dae8fc;strokeColor=#6c8ebf;" vertex="1" parent="1">
          <mxGeometry x="180" y="790" width="120" height="60" as="geometry" />
        </mxCell>
        <mxCell id="FDSydZNx9eT348Bdh0g4-30" style="edgeStyle=orthogonalEdgeStyle;rounded=0;orthogonalLoop=1;jettySize=auto;html=1;exitX=0.5;exitY=1;exitDx=0;exitDy=0;entryX=0.5;entryY=0;entryDx=0;entryDy=0;" edge="1" parent="1" source="FDSydZNx9eT348Bdh0g4-32" target="FDSydZNx9eT348Bdh0g4-44">
          <mxGeometry relative="1" as="geometry" />
        </mxCell>
        <mxCell id="FDSydZNx9eT348Bdh0g4-31" value="获取服务信息" style="edgeLabel;html=1;align=center;verticalAlign=middle;resizable=0;points=[];" vertex="1" connectable="0" parent="FDSydZNx9eT348Bdh0g4-30">
          <mxGeometry x="0.0857" relative="1" as="geometry">
            <mxPoint as="offset" />
          </mxGeometry>
        </mxCell>
        <mxCell id="FDSydZNx9eT348Bdh0g4-45" style="edgeStyle=orthogonalEdgeStyle;rounded=0;orthogonalLoop=1;jettySize=auto;html=1;exitX=1;exitY=0.5;exitDx=0;exitDy=0;" edge="1" parent="1" source="FDSydZNx9eT348Bdh0g4-32" target="FDSydZNx9eT348Bdh0g4-34">
          <mxGeometry relative="1" as="geometry" />
        </mxCell>
        <mxCell id="FDSydZNx9eT348Bdh0g4-32" value="kubedns" style="rounded=1;whiteSpace=wrap;html=1;fillColor=#dae8fc;strokeColor=#6c8ebf;" vertex="1" parent="1">
          <mxGeometry x="180" y="900" width="120" height="60" as="geometry" />
        </mxCell>
        <mxCell id="FDSydZNx9eT348Bdh0g4-33" value="返回服务ip" style="edgeStyle=orthogonalEdgeStyle;rounded=0;orthogonalLoop=1;jettySize=auto;html=1;exitX=0.5;exitY=1;exitDx=0;exitDy=0;entryX=0.5;entryY=0;entryDx=0;entryDy=0;" edge="1" parent="1" source="FDSydZNx9eT348Bdh0g4-34" target="FDSydZNx9eT348Bdh0g4-38">
          <mxGeometry relative="1" as="geometry" />
        </mxCell>
        <mxCell id="FDSydZNx9eT348Bdh0g4-34" value="dnsmasq" style="rounded=1;whiteSpace=wrap;html=1;fillColor=#dae8fc;strokeColor=#6c8ebf;" vertex="1" parent="1">
          <mxGeometry x="360" y="900" width="120" height="60" as="geometry" />
        </mxCell>
        <mxCell id="FDSydZNx9eT348Bdh0g4-35" value="&lt;h1&gt;kube2sky&lt;/h1&gt;&lt;p&gt;监控service资源变化&lt;/p&gt;" style="text;html=1;strokeColor=#d6b656;fillColor=#fff2cc;spacing=5;spacingTop=-20;whiteSpace=wrap;overflow=hidden;rounded=0;" vertex="1" parent="1">
          <mxGeometry x="-10" y="890" width="130" height="80" as="geometry" />
        </mxCell>
        <mxCell id="FDSydZNx9eT348Bdh0g4-36" value="&lt;h1&gt;&lt;span style=&quot;font-size: 12px; font-weight: 400;&quot;&gt;DNS缓存&lt;/span&gt;&lt;/h1&gt;" style="text;html=1;strokeColor=#d6b656;fillColor=#fff2cc;spacing=5;spacingTop=-20;whiteSpace=wrap;overflow=hidden;rounded=0;" vertex="1" parent="1">
          <mxGeometry x="560" y="930" width="70" height="50" as="geometry" />
        </mxCell>
        <mxCell id="FDSydZNx9eT348Bdh0g4-38" value="pod" style="rounded=1;whiteSpace=wrap;html=1;" vertex="1" parent="1">
          <mxGeometry x="360" y="1030" width="120" height="60" as="geometry" />
        </mxCell>
        <mxCell id="FDSydZNx9eT348Bdh0g4-39" value="&lt;h1&gt;healthz&lt;/h1&gt;&lt;p&gt;提供skydns服务的健康检查&lt;/p&gt;" style="text;html=1;strokeColor=#d6b656;fillColor=#fff2cc;spacing=5;spacingTop=-20;whiteSpace=wrap;overflow=hidden;rounded=0;" vertex="1" parent="1">
          <mxGeometry x="190" y="650" width="130" height="80" as="geometry" />
        </mxCell>
        <mxCell id="FDSydZNx9eT348Bdh0g4-40" value="" style="endArrow=none;dashed=1;html=1;dashPattern=1 3;strokeWidth=2;rounded=0;exitX=0.5;exitY=0;exitDx=0;exitDy=0;entryX=0.5;entryY=1;entryDx=0;entryDy=0;fillColor=#ffe6cc;strokeColor=#d79b00;" edge="1" parent="1" source="FDSydZNx9eT348Bdh0g4-26" target="FDSydZNx9eT348Bdh0g4-39">
          <mxGeometry width="50" height="50" relative="1" as="geometry">
            <mxPoint x="210" y="780" as="sourcePoint" />
            <mxPoint x="260" y="730" as="targetPoint" />
          </mxGeometry>
        </mxCell>
        <mxCell id="FDSydZNx9eT348Bdh0g4-41" value="" style="endArrow=none;dashed=1;html=1;dashPattern=1 3;strokeWidth=2;rounded=0;exitX=1;exitY=0.25;exitDx=0;exitDy=0;entryX=0;entryY=0.5;entryDx=0;entryDy=0;fillColor=#ffe6cc;strokeColor=#d79b00;" edge="1" parent="1" source="FDSydZNx9eT348Bdh0g4-35" target="FDSydZNx9eT348Bdh0g4-32">
          <mxGeometry width="50" height="50" relative="1" as="geometry">
            <mxPoint x="120" y="970" as="sourcePoint" />
            <mxPoint x="135" y="910" as="targetPoint" />
          </mxGeometry>
        </mxCell>
        <mxCell id="FDSydZNx9eT348Bdh0g4-42" value="" style="endArrow=none;dashed=1;html=1;dashPattern=1 3;strokeWidth=2;rounded=0;exitX=1;exitY=0.5;exitDx=0;exitDy=0;entryX=0;entryY=0.25;entryDx=0;entryDy=0;fillColor=#ffe6cc;strokeColor=#d79b00;" edge="1" parent="1" source="FDSydZNx9eT348Bdh0g4-34" target="FDSydZNx9eT348Bdh0g4-36">
          <mxGeometry width="50" height="50" relative="1" as="geometry">
            <mxPoint x="540" y="1010" as="sourcePoint" />
            <mxPoint x="555" y="950" as="targetPoint" />
          </mxGeometry>
        </mxCell>
        <mxCell id="FDSydZNx9eT348Bdh0g4-44" value="master" style="rounded=1;whiteSpace=wrap;html=1;fillColor=#dae8fc;strokeColor=#6c8ebf;" vertex="1" parent="1">
          <mxGeometry x="180" y="1030" width="120" height="60" as="geometry" />
        </mxCell>
      </root>
    </mxGraphModel>
  </diagram>
</mxfile>
